<svg width="30" height="26" viewBox="0 0 30 26" fill="none" xmlns="http://www.w3.org/2000/svg">
<path fill-rule="evenodd" clip-rule="evenodd" d="M4.29357 4.07816C3.23036 5.06551 2.50003 6.60018 2.50003 8.82293C2.50003 9.65017 3.05831 10.9399 4.2341 12.5725C5.36443 14.1421 6.90752 15.8164 8.5183 17.3634C10.1249 18.9063 11.768 20.2927 13.0765 21.2871C13.7326 21.7855 14.2887 22.1735 14.7041 22.4306C14.8197 22.5021 14.9182 22.5597 14.9999 22.6047C15.0817 22.5597 15.1802 22.5021 15.2958 22.4306C15.7112 22.1735 16.2673 21.7855 16.9235 21.2871C18.232 20.2927 19.8749 18.9063 21.4816 17.3634C23.0924 15.8165 24.6354 14.1421 25.7658 12.5725C26.9417 10.9399 27.5 9.65011 27.5 8.82293C27.5 6.60018 26.7697 5.06558 25.7065 4.07816C24.6264 3.07512 23.0766 2.5208 21.25 2.5208C19.2959 2.5208 17.2336 3.93077 16.0408 5.73952C15.8092 6.09092 15.4185 6.30207 14.9999 6.30207C14.5814 6.30207 14.1907 6.09092 13.959 5.73952C12.7663 3.93077 10.7041 2.5208 8.74989 2.5208C6.92339 2.5208 5.37368 3.07512 4.29357 4.07816ZM2.59998 2.22391C4.23435 0.706079 6.43459 0 8.75008 0C11.1862 0 13.4333 1.32873 15.0001 3.02042C16.5668 1.32873 18.814 0 21.25 0C23.5655 0 25.7658 0.706079 27.4001 2.22391C29.0514 3.75736 30 6.00395 30 8.82287C30 10.5165 28.9958 12.3778 27.7887 14.0537C26.5363 15.7927 24.8762 17.5845 23.2059 19.1886C21.5313 20.7968 19.8149 22.2463 18.4282 23.3001C17.7365 23.8257 17.1112 24.2648 16.6036 24.5789C16.3518 24.7349 16.108 24.8729 15.8873 24.9764C15.7268 25.0516 15.381 25.2083 15 25.2083C14.619 25.2083 14.2732 25.0516 14.1127 24.9764C13.892 24.8729 13.6482 24.7349 13.3964 24.5789C12.8889 24.2648 12.2635 23.8257 11.5719 23.3001C10.1851 22.2463 8.46877 20.7968 6.79418 19.1886C5.12373 17.5845 3.46367 15.7927 2.2112 14.0537C1.00425 12.3778 0 10.5165 0 8.82287C6.37454e-05 6.00395 0.948723 3.75736 2.59998 2.22391Z" fill="#141414"/>
</svg>
